<svg width="10" height="19" viewBox="0 0 10 19" fill="none" xmlns="http://www.w3.org/2000/svg">
<path d="M9.11293 3.81818V6.77273H0.572443V3.81818H9.11293ZM2.51136 0.420454H6.4446V13.642C6.4446 14.0052 6.5 14.2884 6.6108 14.4915C6.72159 14.6884 6.87547 14.8269 7.07244 14.907C7.27557 14.987 7.50947 15.027 7.77415 15.027C7.95881 15.027 8.14347 15.0116 8.32812 14.9808C8.51278 14.9439 8.65436 14.9162 8.75284 14.8977L9.37145 17.8246C9.17448 17.8861 8.89749 17.9569 8.54048 18.0369C8.18348 18.1231 7.74953 18.1754 7.23864 18.1939C6.29072 18.2308 5.45975 18.1046 4.74574 17.8153C4.03788 17.526 3.48698 17.0767 3.09304 16.4673C2.6991 15.858 2.50521 15.0885 2.51136 14.1591V0.420454Z" fill="#FF1212"/>
</svg>
